<svg width="139" height="48" viewBox="0 0 139 48" fill="none" xmlns="http://www.w3.org/2000/svg">
<path d="M43.589 40.5432C41.6095 40.5432 39.8714 40.1147 38.3747 39.2577C36.878 38.4007 35.7071 37.2118 34.8622 35.6909C34.0294 34.1701 33.613 32.4199 33.613 30.4404C33.613 28.304 34.0234 26.4512 34.8441 24.8821C35.6649 23.3009 36.8055 22.0758 38.266 21.2067C39.7265 20.3377 41.4163 19.9032 43.3355 19.9032C45.3633 19.9032 47.0833 20.3799 48.4955 21.3335C49.9198 22.2749 50.9759 23.6087 51.6639 25.3347C52.3519 27.0608 52.6114 29.0946 52.4424 31.4362H48.1153V29.8429C48.1032 27.7186 47.729 26.1676 46.9928 25.1899C46.2565 24.2122 45.0977 23.7234 43.5166 23.7234C41.7302 23.7234 40.4024 24.2786 39.5334 25.3891C38.6643 26.4874 38.2298 28.0988 38.2298 30.2232C38.2298 32.2027 38.6643 33.7356 39.5334 34.8219C40.4024 35.9082 41.6698 36.4514 43.3355 36.4514C44.4097 36.4514 45.3331 36.216 46.1056 35.7453C46.8902 35.2625 47.4937 34.5684 47.9161 33.6632L52.2252 34.9667C51.4768 36.729 50.3181 38.0989 48.749 39.0766C47.1919 40.0543 45.4719 40.5432 43.589 40.5432ZM36.8538 31.4362V28.1411H50.306V31.4362H36.8538ZM65.3719 40.5432C63.3924 40.5432 61.6543 40.1147 60.1576 39.2577C58.6608 38.4007 57.49 37.2118 56.6451 35.6909C55.8123 34.1701 55.3959 32.4199 55.3959 30.4404C55.3959 28.304 55.8063 26.4512 56.627 24.8821C57.4478 23.3009 58.5884 22.0758 60.0489 21.2067C61.5094 20.3377 63.1992 19.9032 65.1184 19.9032C67.1462 19.9032 68.8662 20.3799 70.2784 21.3335C71.7027 22.2749 72.7588 23.6087 73.4468 25.3347C74.1348 27.0608 74.3943 29.0946 74.2253 31.4362H69.8982V29.8429C69.8861 27.7186 69.5119 26.1676 68.7757 25.1899C68.0394 24.2122 66.8806 23.7234 65.2994 23.7234C63.5131 23.7234 62.1853 24.2786 61.3163 25.3891C60.4472 26.4874 60.0127 28.0988 60.0127 30.2232C60.0127 32.2027 60.4472 33.7356 61.3163 34.8219C62.1853 35.9082 63.4527 36.4514 65.1184 36.4514C66.1926 36.4514 67.116 36.216 67.8885 35.7453C68.6731 35.2625 69.2766 34.5684 69.699 33.6632L74.0081 34.9667C73.2597 36.729 72.101 38.0989 70.5319 39.0766C68.9748 40.0543 67.2548 40.5432 65.3719 40.5432ZM58.6367 31.4362V28.1411H72.0889V31.4362H58.6367ZM78.2289 40L78.2651 13.9284H82.6828V29.8611L89.8343 20.4463H95.284L87.6979 30.2232L95.9358 40H90.1602L82.6828 30.5853V40H78.2289ZM106.286 40.5432C104.306 40.5432 102.568 40.1147 101.071 39.2577C99.5745 38.4007 98.4037 37.2118 97.5588 35.6909C96.7259 34.1701 96.3095 32.4199 96.3095 30.4404C96.3095 28.304 96.7199 26.4512 97.5407 24.8821C98.3614 23.3009 99.5021 22.0758 100.963 21.2067C102.423 20.3377 104.113 19.9032 106.032 19.9032C108.06 19.9032 109.78 20.3799 111.192 21.3335C112.616 22.2749 113.672 23.6087 114.36 25.3347C115.048 27.0608 115.308 29.0946 115.139 31.4362H110.812V29.8429C110.8 27.7186 110.426 26.1676 109.689 25.1899C108.953 24.2122 107.794 23.7234 106.213 23.7234C104.427 23.7234 103.099 24.2786 102.23 25.3891C101.361 26.4874 100.926 28.0988 100.926 30.2232C100.926 32.2027 101.361 33.7356 102.23 34.8219C103.099 35.9082 104.366 36.4514 106.032 36.4514C107.106 36.4514 108.03 36.216 108.802 35.7453C109.587 35.2625 110.19 34.5684 110.613 33.6632L114.922 34.9667C114.173 36.729 113.015 38.0989 111.446 39.0766C109.888 40.0543 108.168 40.5432 106.286 40.5432ZM99.5504 31.4362V28.1411H113.003V31.4362H99.5504ZM130.639 40C129.348 40.2414 128.08 40.344 126.837 40.3078C125.606 40.2836 124.502 40.0604 123.524 39.6379C122.546 39.2034 121.804 38.5214 121.297 37.592C120.85 36.7471 120.615 35.8841 120.591 35.0029C120.567 34.1218 120.555 33.126 120.555 32.0156V15.0147H124.9V31.7621C124.9 32.5467 124.906 33.2347 124.918 33.8261C124.942 34.4175 125.069 34.9004 125.298 35.2745C125.733 35.9987 126.427 36.4031 127.38 36.4876C128.334 36.5721 129.42 36.5238 130.639 36.3427V40ZM117.006 23.8682V20.4463H130.639V23.8682H117.006Z" fill="white"/>
<path d="M11.7897 39.4132V13.5867C11.7897 12.5941 12.5944 11.7894 13.587 11.7894H21.3082C22.3008 11.7894 23.1055 12.5941 23.1055 13.5867V39.4132C23.1055 40.4058 22.3008 41.2105 21.3082 41.2105H13.587C12.5944 41.2105 11.7897 40.4058 11.7897 39.4132Z" fill="white" stroke="white" stroke-width="0.449327"/>
<path d="M36.6843 5.98979V2.77362C36.6843 1.50336 35.3149 0.473633 33.626 0.473633H3.53199C1.84304 0.47358 0.473755 1.5033 0.473755 2.77357V6.01122C2.02663 6.17896 3.22165 7.1806 3.22165 8.39482C3.22165 9.60903 2.02663 10.6108 0.473755 10.7781V14.0162C0.473755 15.286 1.84304 16.3157 3.53199 16.3157H33.6259C35.3149 16.3157 36.6842 15.286 36.6842 14.0162V10.7995C34.985 10.7397 33.6309 9.68764 33.6309 8.39487C33.6309 7.10216 34.9851 6.05005 36.6843 5.98979ZM9.06774 14.8646H8.01559V12.8011H9.06774V14.8646ZM9.06774 11.2391H8.01559V9.17559H9.06774V11.2391ZM9.06774 7.61372H8.01559V5.54971H9.06774V7.61372ZM9.06774 3.98832H8.01559V1.92472H9.06774V3.98832Z" fill="white"/>
</svg>
